<svg xmlns="http://www.w3.org/2000/svg" width="1160" height="760" viewBox="0 0 1160 760">
<rect width="100%" height="100%" fill="#ffffff"/>
<text x="580.0" y="46.0" font-size="24" text-anchor="middle" font-weight="700" fill="#1f2933">Distribuição do ICA 2022 por faixa de PIB per capita 2021</text>
<text x="580.0" y="76.0" font-size="15" text-anchor="middle" font-weight="400" fill="#52616b">497 municípios do Rio Grande do Sul agrupados por nível de PIB per capita</text>
<line x1="105" y1="610.0" x2="1105" y2="610.0" stroke="#d9e2ec" stroke-width="1"/>
<text x="89.0" y="615.0" font-size="13" text-anchor="end" font-weight="400" fill="#52616b">0</text>
<line x1="105" y1="512.0" x2="1105" y2="512.0" stroke="#d9e2ec" stroke-width="1"/>
<text x="89.0" y="517.0" font-size="13" text-anchor="end" font-weight="400" fill="#52616b">20</text>
<line x1="105" y1="414.0" x2="1105" y2="414.0" stroke="#d9e2ec" stroke-width="1"/>
<text x="89.0" y="419.0" font-size="13" text-anchor="end" font-weight="400" fill="#52616b">40</text>
<line x1="105" y1="316.0" x2="1105" y2="316.0" stroke="#d9e2ec" stroke-width="1"/>
<text x="89.0" y="321.0" font-size="13" text-anchor="end" font-weight="400" fill="#52616b">60</text>
<line x1="105" y1="218.0" x2="1105" y2="218.0" stroke="#d9e2ec" stroke-width="1"/>
<text x="89.0" y="223.0" font-size="13" text-anchor="end" font-weight="400" fill="#52616b">80</text>
<line x1="105" y1="120.0" x2="1105" y2="120.0" stroke="#d9e2ec" stroke-width="1"/>
<text x="89.0" y="125.0" font-size="13" text-anchor="end" font-weight="400" fill="#52616b">100</text>
<line x1="105" y1="120" x2="105" y2="610" stroke="#334e68" stroke-width="1.4"/>
<line x1="105" y1="610" x2="1105" y2="610" stroke="#334e68" stroke-width="1.4"/>
<line x1="188.3" y1="186.3" x2="188.3" y2="485.3" stroke="#486581" stroke-width="2"/>
<line x1="166.3" y1="186.3" x2="210.3" y2="186.3" stroke="#486581" stroke-width="2"/>
<line x1="166.3" y1="485.3" x2="210.3" y2="485.3" stroke="#486581" stroke-width="2"/>
<rect x="148.3" y="347.9" width="80" height="27.4" fill="#2f80ed" fill-opacity="0.62" stroke="#1b4f9c" stroke-width="2"/>
<line x1="148.3" y1="360.6" x2="228.3" y2="360.6" stroke="#102a43" stroke-width="3"/>
<text x="188.3" y="644.0" font-size="13" text-anchor="middle" font-weight="400" fill="#243b53">até</text>
<text x="188.3" y="662.0" font-size="13" text-anchor="middle" font-weight="400" fill="#243b53">R$ 20 mil</text>
<text x="188.3" y="688.0" font-size="12" text-anchor="middle" font-weight="400" fill="#627d98">n=9</text>
<line x1="355.0" y1="169.0" x2="355.0" y2="501.1" stroke="#486581" stroke-width="2"/>
<line x1="333.0" y1="169.0" x2="377.0" y2="169.0" stroke="#486581" stroke-width="2"/>
<line x1="333.0" y1="501.1" x2="377.0" y2="501.1" stroke="#486581" stroke-width="2"/>
<rect x="315.0" y="273.4" width="80" height="82.1" fill="#2f80ed" fill-opacity="0.62" stroke="#1b4f9c" stroke-width="2"/>
<line x1="315.0" y1="308.9" x2="395.0" y2="308.9" stroke="#102a43" stroke-width="3"/>
<text x="355.0" y="644.0" font-size="13" text-anchor="middle" font-weight="400" fill="#243b53">R$</text>
<text x="355.0" y="662.0" font-size="13" text-anchor="middle" font-weight="400" fill="#243b53">20-35 mil</text>
<text x="355.0" y="688.0" font-size="12" text-anchor="middle" font-weight="400" fill="#627d98">n=113</text>
<line x1="521.7" y1="149.4" x2="521.7" y2="474.5" stroke="#486581" stroke-width="2"/>
<line x1="499.7" y1="149.4" x2="543.7" y2="149.4" stroke="#486581" stroke-width="2"/>
<line x1="499.7" y1="474.5" x2="543.7" y2="474.5" stroke="#486581" stroke-width="2"/>
<rect x="481.7" y="255.8" width="80" height="94.6" fill="#2f80ed" fill-opacity="0.62" stroke="#1b4f9c" stroke-width="2"/>
<line x1="481.7" y1="304.0" x2="561.7" y2="304.0" stroke="#102a43" stroke-width="3"/>
<text x="521.7" y="644.0" font-size="13" text-anchor="middle" font-weight="400" fill="#243b53">R$</text>
<text x="521.7" y="662.0" font-size="13" text-anchor="middle" font-weight="400" fill="#243b53">35-50 mil</text>
<text x="521.7" y="688.0" font-size="12" text-anchor="middle" font-weight="400" fill="#627d98">n=150</text>
<line x1="688.3" y1="145.9" x2="688.3" y2="476.4" stroke="#486581" stroke-width="2"/>
<line x1="666.3" y1="145.9" x2="710.3" y2="145.9" stroke="#486581" stroke-width="2"/>
<line x1="666.3" y1="476.4" x2="710.3" y2="476.4" stroke="#486581" stroke-width="2"/>
<rect x="648.3" y="254.5" width="80" height="79.4" fill="#2f80ed" fill-opacity="0.62" stroke="#1b4f9c" stroke-width="2"/>
<line x1="648.3" y1="297.2" x2="728.3" y2="297.2" stroke="#102a43" stroke-width="3"/>
<text x="688.3" y="644.0" font-size="13" text-anchor="middle" font-weight="400" fill="#243b53">R$</text>
<text x="688.3" y="662.0" font-size="13" text-anchor="middle" font-weight="400" fill="#243b53">50-75 mil</text>
<text x="688.3" y="688.0" font-size="12" text-anchor="middle" font-weight="400" fill="#627d98">n=131</text>
<line x1="855.0" y1="162.0" x2="855.0" y2="515.2" stroke="#486581" stroke-width="2"/>
<line x1="833.0" y1="162.0" x2="877.0" y2="162.0" stroke="#486581" stroke-width="2"/>
<line x1="833.0" y1="515.2" x2="877.0" y2="515.2" stroke="#486581" stroke-width="2"/>
<rect x="815.0" y="252.4" width="80" height="91.7" fill="#2f80ed" fill-opacity="0.62" stroke="#1b4f9c" stroke-width="2"/>
<line x1="815.0" y1="290.0" x2="895.0" y2="290.0" stroke="#102a43" stroke-width="3"/>
<text x="855.0" y="644.0" font-size="13" text-anchor="middle" font-weight="400" fill="#243b53">R$</text>
<text x="855.0" y="662.0" font-size="13" text-anchor="middle" font-weight="400" fill="#243b53">75-100 mil</text>
<text x="855.0" y="688.0" font-size="12" text-anchor="middle" font-weight="400" fill="#627d98">n=51</text>
<line x1="1021.7" y1="175.3" x2="1021.7" y2="460.1" stroke="#486581" stroke-width="2"/>
<line x1="999.7" y1="175.3" x2="1043.7" y2="175.3" stroke="#486581" stroke-width="2"/>
<line x1="999.7" y1="460.1" x2="1043.7" y2="460.1" stroke="#486581" stroke-width="2"/>
<rect x="981.7" y="264.5" width="80" height="84.8" fill="#2f80ed" fill-opacity="0.62" stroke="#1b4f9c" stroke-width="2"/>
<line x1="981.7" y1="304.0" x2="1061.7" y2="304.0" stroke="#102a43" stroke-width="3"/>
<text x="1021.7" y="644.0" font-size="13" text-anchor="middle" font-weight="400" fill="#243b53">acima</text>
<text x="1021.7" y="662.0" font-size="13" text-anchor="middle" font-weight="400" fill="#243b53">de R$ 100 mil</text>
<text x="1021.7" y="688.0" font-size="12" text-anchor="middle" font-weight="400" fill="#627d98">n=43</text>
<text transform="rotate(-90 28 365)" x="28.0" y="365.0" font-size="15" text-anchor="middle" font-weight="700" fill="#334e68">ICA 2022</text>
<text x="580.0" y="726.0" font-size="15" text-anchor="middle" font-weight="700" fill="#334e68">Faixa de PIB per capita em 2021</text>
<text x="580.0" y="748.0" font-size="12" text-anchor="middle" font-weight="400" fill="#627d98">Caixas mostram quartis e mediana; hastes mostram mínimo e máximo dentro de cada faixa.</text>
</svg>